<svg width="24" height="24" viewBox="0 0 24 24" fill="none" xmlns="http://www.w3.org/2000/svg">
<path d="M0 11.5C0 6.07885 0 3.36827 1.68413 1.68413C3.36827 0 6.07885 0 11.5 0H12.5C17.9212 0 20.6318 0 22.3158 1.68413C24 3.36827 24 6.07885 24 11.5V12.5C24 17.9212 24 20.6318 22.3158 22.3158C20.6318 24 17.9212 24 12.5 24H11.5C6.07885 24 3.36827 24 1.68413 22.3158C0 20.6318 0 17.9212 0 12.5L0 11.5Z" fill="#2AABEE"/>
<path fill-rule="evenodd" clip-rule="evenodd" d="M4.96022 11.873C8.70967 10.3549 11.2099 9.35414 12.4609 8.87061C16.0327 7.49001 16.7749 7.25019 17.2587 7.24227C17.3651 7.24053 17.603 7.26503 17.7571 7.38123C17.8872 7.47935 17.923 7.61189 17.9401 7.70491C17.9573 7.79794 17.9786 8.00985 17.9616 8.17543C17.7681 10.0654 16.9305 14.6517 16.5045 16.7684C16.3242 17.6641 15.9692 17.9644 15.6255 17.9938C14.8786 18.0577 14.3114 17.5351 13.588 17.0945C12.456 16.4049 11.8165 15.9756 10.7177 15.3027C9.44783 14.5251 10.271 14.0977 10.9947 13.3992C11.1841 13.2164 14.475 10.4348 14.5387 10.1824C14.5466 10.1509 14.554 10.0332 14.4788 9.97112C14.4036 9.909 14.2926 9.93025 14.2125 9.94714C14.099 9.97109 12.2906 11.0818 8.78738 13.2794C8.27408 13.6069 7.80915 13.7665 7.39258 13.7582C6.93335 13.7489 6.04997 13.5169 5.39328 13.3185C4.58781 13.0752 3.94764 12.9465 4.00338 12.5333C4.03242 12.3181 4.35136 12.098 4.96022 11.873Z" fill="white"/>
</svg>
